<svg width="28" height="28" viewBox="0 0 28 28" fill="none" xmlns="http://www.w3.org/2000/svg">
<path d="M8.16675 19.8332V15.1665" stroke="white" stroke-width="1.8" stroke-linecap="round"/>
<path d="M14 19.8332V8.1665" stroke="white" stroke-width="1.8" stroke-linecap="round"/>
<path d="M19.8333 19.8335V12.8335" stroke="white" stroke-width="1.8" stroke-linecap="round"/>
<path d="M2.91675 13.9998C2.91675 8.77511 2.91675 6.16274 4.53986 4.53962C6.16299 2.9165 8.77535 2.9165 14.0001 2.9165C19.2248 2.9165 21.8372 2.9165 23.4603 4.53962C25.0834 6.16274 25.0834 8.77511 25.0834 13.9998C25.0834 19.2245 25.0834 21.8369 23.4603 23.4601C21.8372 25.0832 19.2248 25.0832 14.0001 25.0832C8.77535 25.0832 6.16299 25.0832 4.53986 23.4601C2.91675 21.8369 2.91675 19.2245 2.91675 13.9998Z" stroke="white" stroke-width="1.8" stroke-linejoin="round"/>
</svg>
