<svg width="28" height="28" viewBox="0 0 28 28" fill="none" xmlns="http://www.w3.org/2000/svg">
<path d="M14.1672 12.4728L14.4086 12.2314C16.7171 9.92286 20.46 9.92286 22.7685 12.2314C25.0771 14.5399 25.0771 18.2828 22.7685 20.5913L19.4246 23.9352C17.1161 26.2438 13.3732 26.2438 11.0646 23.9352C8.75612 21.6267 8.75612 17.8838 11.0646 15.5753L11.6064 15.0336" stroke="white" stroke-width="1.8" stroke-linecap="round"/>
<path d="M23.3935 12.9665L23.9352 12.4248C26.2438 10.1163 26.2438 6.37341 23.9352 4.06488C21.6267 1.75637 17.8838 1.75637 15.5753 4.06488L12.2314 7.40885C9.92286 9.71737 9.92286 13.4602 12.2314 15.7687C14.5399 18.0773 18.2828 18.0773 20.5913 15.7687L20.8327 15.5273" stroke="white" stroke-width="1.8" stroke-linecap="round"/>
<path d="M5.24992 4.6665L6.99992 6.99984M2.33325 9.33317L5.83325 10.4998M3.49992 15.7498L5.83325 13.9998" stroke="white" stroke-width="1.8" stroke-linecap="round" stroke-linejoin="round"/>
</svg>
