<svg width="72" height="62" viewBox="0 0 72 62" fill="none" xmlns="http://www.w3.org/2000/svg">
<g clip-path="url(#clip0_1_1655)">
<path d="M7.8335 47.0003C7.8335 32.2296 7.8335 24.8443 12.4221 20.2556C17.0108 15.667 24.3961 15.667 39.1668 15.667L54.8335 15.667C69.604 15.667 76.9897 15.667 81.5781 20.2556C86.1668 24.8443 86.1668 32.2296 86.1668 47.0003C86.1668 61.7709 86.1668 69.1565 81.5781 73.7449C76.9897 78.3337 69.604 78.3337 54.8335 78.3337L39.1668 78.3337C24.3961 78.3337 17.0108 78.3337 12.4221 73.7449C7.8335 69.1565 7.8335 61.7709 7.8335 47.0003Z" stroke="#A3A1FF" stroke-width="6.5" stroke-linecap="round" stroke-linejoin="round"/>
<path d="M7.8335 39.167L24.2726 39.167C27.0713 39.167 28.4707 39.167 29.7258 39.6057C30.4922 39.8736 31.2123 40.259 31.8603 40.7482C32.9215 41.5491 33.6977 42.7131 35.2502 45.042C36.8026 47.3708 37.5789 48.5349 38.64 49.3358C39.2879 49.825 40.0081 50.2104 40.7746 50.4783C42.0295 50.917 43.4289 50.917 46.2278 50.917L47.7725 50.917C50.5714 50.917 51.9708 50.917 53.2257 50.4783C53.9922 50.2104 54.7125 49.825 55.3603 49.3358C56.4213 48.5349 57.1976 47.3708 58.7502 45.042C60.3027 42.7131 61.079 41.5491 62.14 40.7482C62.7879 40.259 63.5081 39.8736 64.2746 39.6057C65.5295 39.167 66.9289 39.167 69.7278 39.167L86.1668 39.167" stroke="#A3A1FF" stroke-width="6.5" stroke-linecap="round" stroke-linejoin="round"/>
</g>
<defs>
<clipPath id="clip0_1_1655">
<rect width="94" height="94" fill="white"/>
</clipPath>
</defs>
</svg>
