<svg width="28" height="28" viewBox="0 0 28 28" fill="none" xmlns="http://www.w3.org/2000/svg">
<path d="M2.3335 3.5H9.3335C10.5712 3.5 11.7582 3.99167 12.6333 4.86683C13.5085 5.742 14.0002 6.92899 14.0002 8.16667V24.5C14.0002 23.5717 13.6314 22.6815 12.975 22.0251C12.3187 21.3687 11.4284 21 10.5002 21H2.3335V3.5Z" stroke="#8F9DAC" stroke-width="2" stroke-linecap="round" stroke-linejoin="round"/>
<path d="M25.6667 3.5H18.6667C17.429 3.5 16.242 3.99167 15.3668 4.86683C14.4917 5.742 14 6.92899 14 8.16667V24.5C14 23.5717 14.3687 22.6815 15.0251 22.0251C15.6815 21.3687 16.5717 21 17.5 21H25.6667V3.5Z" stroke="#8F9DAC" stroke-width="2" stroke-linecap="round" stroke-linejoin="round"/>
</svg>
