<svg width="28" height="28" viewBox="0 0 28 28" fill="none" xmlns="http://www.w3.org/2000/svg">
<path d="M25.6666 13.4946C25.6666 19.6584 20.4425 24.6558 13.9999 24.6558C13.2424 24.6568 12.487 24.5867 11.7429 24.4471C11.2073 24.3464 10.9395 24.2961 10.7525 24.3247C10.5656 24.3533 10.3006 24.4942 9.77074 24.776C8.27175 25.5731 6.52386 25.8547 4.84288 25.542C5.48178 24.7561 5.91813 23.8132 6.11066 22.8024C6.22733 22.1841 5.93825 21.5835 5.50529 21.1438C3.5388 19.1469 2.33325 16.4561 2.33325 13.4946C2.33325 7.33099 7.55733 2.3335 13.9999 2.3335C14.799 2.3335 15.5794 2.41038 16.3333 2.55682" stroke="#8F9DAC" stroke-width="1.8" stroke-linecap="round" stroke-linejoin="round"/>
<path d="M26.8334 6.41683C26.8334 8.672 25.0052 10.5002 22.7501 10.5002C20.4949 10.5002 18.6667 8.672 18.6667 6.41683C18.6667 4.16166 20.4949 2.3335 22.7501 2.3335C25.0052 2.3335 26.8334 4.16166 26.8334 6.41683Z" fill="#E56060"/>
<path d="M13.9947 14H14.0052M18.6561 14H18.6666M9.33325 14H9.34372" stroke="#8F9DAC" stroke-width="1.8" stroke-linecap="round" stroke-linejoin="round"/>
</svg>
