<svg width="28" height="28" viewBox="0 0 28 28" fill="none" xmlns="http://www.w3.org/2000/svg">
<path d="M15.1666 25.6668C14.212 25.6668 13.3002 25.2688 11.4763 24.4726C9.34764 23.5435 7.71805 22.8322 6.58748 22.1668H2.33325M15.1666 25.6668C16.1212 25.6668 17.033 25.2688 18.8569 24.4726C23.3967 22.491 25.6666 21.5002 25.6666 19.8335V7.5835M15.1666 25.6668V12.8335M4.66659 7.5835V11.0835" stroke="white" stroke-width="1.8" stroke-linecap="round" stroke-linejoin="round"/>
<path d="M10.8803 11.3068L7.47225 9.65765C5.60191 8.75261 4.66675 8.3001 4.66675 7.5835C4.66675 6.86689 5.60191 6.41438 7.47225 5.50934L10.8803 3.86022C12.9837 2.84241 14.0354 2.3335 15.1667 2.3335C16.2981 2.3335 17.3498 2.8424 19.4532 3.86022L22.8613 5.50934C24.7315 6.41438 25.6667 6.86689 25.6667 7.5835C25.6667 8.3001 24.7315 8.75261 22.8613 9.65765L19.4532 11.3068C17.3498 12.3246 16.2981 12.8335 15.1667 12.8335C14.0354 12.8335 12.9837 12.3246 10.8803 11.3068Z" stroke="white" stroke-width="1.8" stroke-linecap="round" stroke-linejoin="round"/>
<path d="M21.1594 4.68506L9.17847 10.4825" stroke="white" stroke-width="1.8" stroke-linecap="round" stroke-linejoin="round"/>
<path d="M2.33325 15.1665H5.83325" stroke="white" stroke-width="1.8" stroke-linecap="round" stroke-linejoin="round"/>
<path d="M2.33325 18.6665H5.83325" stroke="white" stroke-width="1.8" stroke-linecap="round" stroke-linejoin="round"/>
</svg>
