<svg width="28" height="28" viewBox="0 0 28 28" fill="none" xmlns="http://www.w3.org/2000/svg">
<path d="M13.9999 22.7502C12.4453 23.4763 10.4032 23.9168 8.16659 23.9168C6.92301 23.9168 5.73956 23.7807 4.66659 23.5349C2.82125 23.1122 2.33325 22.0264 2.33325 20.2838V7.71646C2.33325 6.56749 3.54662 5.77835 4.66659 6.03486C5.73956 6.28062 6.92301 6.41683 8.16659 6.41683C10.4032 6.41683 12.4453 5.97625 13.9999 5.25016C15.5545 4.52408 17.5966 4.0835 19.8333 4.0835C21.0768 4.0835 22.2603 4.2197 23.3333 4.46546C25.1786 4.88812 25.6666 5.97392 25.6666 7.71646V20.2838C25.6666 21.4329 24.4533 22.222 23.3333 21.9655C22.2603 21.7196 21.0768 21.5835 19.8333 21.5835C17.5966 21.5835 15.5545 22.024 13.9999 22.7502Z" stroke="white" stroke-width="1.8"/>
<path d="M16.9166 14.0002C16.9166 15.611 15.6107 16.9168 13.9999 16.9168C12.3891 16.9168 11.0833 15.611 11.0833 14.0002C11.0833 12.3893 12.3891 11.0835 13.9999 11.0835C15.6107 11.0835 16.9166 12.3893 16.9166 14.0002Z" stroke="white" stroke-width="1.8"/>
<path d="M6.41675 15.1665V15.177" stroke="white" stroke-width="1.8" stroke-linecap="round" stroke-linejoin="round"/>
<path d="M21.5833 12.8242V12.8347" stroke="white" stroke-width="1.8" stroke-linecap="round" stroke-linejoin="round"/>
</svg>
