<svg width="28" height="28" viewBox="0 0 28 28" fill="none" xmlns="http://www.w3.org/2000/svg">
<path d="M17.5 2.9165V4.6665C17.5 6.31642 17.5 7.14138 18.0125 7.65394C18.5251 8.1665 19.3501 8.1665 21 8.1665H22.75" stroke="white" stroke-width="1.8" stroke-linecap="round" stroke-linejoin="round"/>
<path d="M4.66675 18.6668V9.3335C4.66675 6.03366 4.66675 4.38375 5.69187 3.35862C6.717 2.3335 8.36691 2.3335 11.6667 2.3335H16.5336C17.0104 2.3335 17.2489 2.3335 17.4633 2.4223C17.6776 2.51111 17.8463 2.67972 18.1835 3.01692L22.65 7.48341C22.9871 7.82061 23.1558 7.98922 23.2446 8.20361C23.3334 8.41801 23.3334 8.65646 23.3334 9.13333V18.6668C23.3334 21.9666 23.3334 23.6165 22.3083 24.6417C21.2831 25.6668 19.6332 25.6668 16.3334 25.6668H11.6667C8.36691 25.6668 6.717 25.6668 5.69187 24.6417C4.66675 23.6165 4.66675 21.9666 4.66675 18.6668Z" stroke="white" stroke-width="1.8" stroke-linecap="round" stroke-linejoin="round"/>
<path d="M9.33325 12.8335H18.6666M9.33325 16.3335H18.6666M9.33325 19.8335H14.1992" stroke="white" stroke-width="1.8" stroke-linecap="round" stroke-linejoin="round"/>
</svg>
