<svg width="24" height="24" viewBox="0 0 24 24" fill="none" xmlns="http://www.w3.org/2000/svg">
<g clip-path="url(#clip0_1_1872)">
<path d="M17.217 1.19072C15.6394 0.427875 13.8695 0 11.9996 0C10.1298 0 8.35988 0.427875 6.78225 1.19072L5.73877 12L6.78225 22.8093C8.35988 23.5721 10.1298 24 11.9996 24C13.8695 24 15.6394 23.5721 17.217 22.8093L18.2605 12L17.217 1.19072Z" fill="#D80027"/>
<path d="M6.78262 1.19141C2.76872 3.13236 0 7.24278 0 12.0003C0 16.7577 2.76872 20.8682 6.78262 22.8091V1.19141Z" fill="black"/>
<path d="M17.2173 1.19141V22.8091C21.2312 20.8682 23.9999 16.7577 23.9999 12.0003C23.9999 7.24278 21.2312 3.13236 17.2173 1.19141Z" fill="#496E2D"/>
<path d="M11.9996 7.82715C9.69436 7.82715 7.82568 9.69587 7.82568 12.001C7.82568 14.3062 9.6944 16.1749 11.9996 16.1749C14.3047 16.1749 16.1735 14.3062 16.1735 12.001C16.1735 9.69587 14.3048 7.82715 11.9996 7.82715ZM11.9996 14.6097C10.5588 14.6097 9.39089 13.4417 9.39089 12.001C9.39089 10.5603 10.5589 9.39235 11.9996 9.39235C13.4403 9.39235 14.6083 10.5603 14.6083 12.001C14.6083 13.4417 13.4403 14.6097 11.9996 14.6097Z" fill="#FFDA44"/>
<path d="M12 10.4365C11.4237 10.4365 10.9565 10.9037 10.9565 11.48V13.0452H13.0435V11.48C13.0435 10.9037 12.5764 10.4365 12 10.4365Z" fill="#FFDA44"/>
</g>
<defs>
<clipPath id="clip0_1_1872">
<rect width="24" height="24" fill="white"/>
</clipPath>
</defs>
</svg>
