<svg width="28" height="28" viewBox="0 0 28 28" fill="none" xmlns="http://www.w3.org/2000/svg">
<path d="M2.3335 14.0003C2.3335 8.7756 2.3335 6.16323 3.95661 4.54011C5.57973 2.91699 8.1921 2.91699 13.4168 2.91699C18.6415 2.91699 21.2539 2.91699 22.8771 4.54011C24.5002 6.16323 24.5002 8.7756 24.5002 14.0003C24.5002 19.225 24.5002 21.8374 22.8771 23.4606C21.2539 25.0837 18.6415 25.0837 13.4168 25.0837C8.1921 25.0837 5.57973 25.0837 3.95661 23.4606C2.3335 21.8374 2.3335 19.225 2.3335 14.0003Z" stroke="#8F9DAC" stroke-width="1.8" stroke-linejoin="round"/>
<path d="M14.4246 9.00943L15.4511 11.0795C15.5911 11.3677 15.9645 11.6441 16.2794 11.697L18.1401 12.0087C19.33 12.2087 19.6098 13.079 18.7525 13.9376L17.3059 15.3961C17.061 15.6431 16.9269 16.1195 17.0027 16.4605L17.4167 18.2659C17.7434 19.6951 16.991 20.2478 15.737 19.5009L13.993 18.46C13.678 18.2718 13.1589 18.2718 12.8382 18.46L11.0941 19.5009C9.84596 20.2478 9.0877 19.6891 9.41434 18.2659L9.82846 16.4605C9.90429 16.1195 9.77013 15.6431 9.52516 15.3961L8.07865 13.9376C7.22708 13.079 7.50121 12.2087 8.69108 12.0087L10.5517 11.697C10.8609 11.6441 11.2341 11.3677 11.3741 11.0795L12.4007 9.00943C12.9607 7.88618 13.8705 7.88618 14.4246 9.00943Z" stroke="#8F9DAC" stroke-width="1.8" stroke-linecap="round" stroke-linejoin="round"/>
</svg>
